<svg xmlns="http://www.w3.org/2000/svg" width="100" height="80" viewBox="0 0 100 80">
    <g fill="none" fill-rule="evenodd">
        <path fill="#FBB316" d="M51.328 44.053c.53-.917.215-2.088-.701-2.617-.917-.53-2.09-.216-2.619.7-.529.918-.215 2.089.702 2.618.917.53 2.088.216 2.618-.701zm9.377-5.44L39.737 26.506v21.709l13.735 7.93-4.335 2.503L23.834 44.04V14.822l13.736-7.93 8.09 4.671c1.583-1.107 3.728-1.27 5.512-.24 2.453 1.417 3.295 4.555 1.878 7.009-1.417 2.455-4.556 3.295-7.01 1.878-1.784-1.03-2.715-2.968-2.547-4.892l-5.924-3.42-9.4 5.426v24.212l7.233 4.176V21.5l2.167-1.252 20.968 12.107V10.647L44.802 2.716 49.137.214 74.44 14.822V44.04l-13.735 7.93-8.091-4.672c-1.584 1.108-3.728 1.27-5.511.24-2.455-1.417-3.296-4.554-1.88-7.01 1.418-2.453 4.556-3.295 7.012-1.877 1.782 1.03 2.714 2.968 2.546 4.893l5.924 3.42 9.4-5.427V17.325l-7.233-4.176V37.36l-2.167 1.252zm-10.44-21.888c.53-.917.215-2.089-.7-2.618-.918-.53-2.09-.215-2.619.7-.53.918-.215 2.09.702 2.618.916.53 2.088.216 2.617-.7z"/>
        <path fill="#FFF" d="M95.485 76.616c-.288.185-.604.329-.95.432-.345.104-.72.156-1.122.156-.6 0-1.152-.115-1.658-.346-.507-.23-.942-.54-1.304-.932-.363-.392-.645-.85-.847-1.373-.201-.524-.302-1.08-.302-1.667s.1-1.143.302-1.667c.202-.524.481-.979.838-1.364.357-.386.786-.691 1.287-.916.5-.224 1.05-.337 1.65-.337.598 0 1.15.116 1.657.346.507.23.942.541 1.304.933.363.391.645.849.846 1.373.202.524.303 1.08.303 1.666 0 .426-.052.832-.156 1.218-.103.386-.259.74-.466 1.062l-2.09-1.9-1.364 1.555 2.072 1.761zm3.005 0c.392-.53.694-1.11.907-1.744.213-.633.32-1.295.32-1.986 0-.852-.156-1.658-.467-2.418-.31-.76-.742-1.422-1.295-1.986-.553-.565-1.215-1.01-1.986-1.339-.772-.328-1.624-.492-2.556-.492-.933 0-1.785.167-2.557.5-.77.335-1.439.787-2.003 1.357-.564.57-1.002 1.234-1.313 1.994-.31.76-.466 1.566-.466 2.418 0 .852.155 1.658.466 2.419.311.76.743 1.422 1.296 1.986.552.564 1.214 1.01 1.986 1.338.771.328 1.623.493 2.556.493.714 0 1.376-.101 1.986-.303.61-.201 1.175-.48 1.693-.837l1.45 1.295 1.365-1.52-1.382-1.175zm-15.128-9.758h-8.946v12.09h9.032v-1.917h-6.925v-3.23h6.062v-1.917h-6.062v-3.109h6.84v-1.917zm-21.26 12.09h8.463v-1.917H64.21V66.858h-2.106v12.09zM55.68 72.92c0 .588-.101 1.143-.303 1.667-.2.524-.48.979-.837 1.365-.357.385-.786.69-1.287.915-.501.224-1.05.337-1.65.337-.598 0-1.15-.115-1.657-.346-.507-.23-.942-.54-1.304-.932-.363-.392-.645-.85-.847-1.373-.201-.524-.302-1.08-.302-1.667s.1-1.143.302-1.667c.202-.524.481-.979.838-1.364.357-.386.786-.691 1.287-.916.5-.224 1.05-.337 1.65-.337.598 0 1.15.116 1.657.346.507.23.941.541 1.304.933.363.391.645.849.846 1.373.202.524.303 1.08.303 1.666zm2.228-.034c0-.852-.156-1.658-.466-2.418-.311-.76-.743-1.422-1.296-1.986-.553-.565-1.214-1.01-1.986-1.339-.772-.328-1.624-.492-2.556-.492-.933 0-1.785.167-2.556.5-.772.335-1.44.787-2.004 1.357-.564.57-1.002 1.234-1.313 1.994-.31.76-.466 1.566-.466 2.418 0 .852.156 1.658.466 2.419.311.76.743 1.422 1.296 1.986.553.564 1.215 1.01 1.986 1.338.772.328 1.624.493 2.556.493.933 0 1.785-.167 2.557-.501.77-.334 1.439-.786 2.003-1.356.564-.57 1.002-1.235 1.313-1.995.31-.76.466-1.566.466-2.418zM38.96 75.218l-6.462-8.36h-1.966v12.09h2.107v-8.6l6.652 8.6h1.777v-12.09H38.96v8.36zM21.52 66.772h-1.97L14.23 78.948h2.176c1.913-4.49 1.995-4.741 4.094-9.637 1.787 4.135 2.531 5.919 4.093 9.637h2.245l-5.32-12.176zm-13.09 8.446l-6.463-8.36H0v12.09h2.107v-8.6l6.652 8.6h1.777v-12.09H8.429v8.36z"/>
    </g>
</svg>
